<svg xmlns="http://www.w3.org/2000/svg" xmlns:wrs="http://www.wiris.com/xml/cvs-extension" height="27" width="92" wrs:baseline="23"><!--MathML: <math xmlns="http://www.w3.org/1998/Math/MathML"><msqrt><mn>324</mn><mroot><mn>23</mn><mn>324</mn></mroot></msqrt></math>--><defs><style type="text/css"/></defs><polyline fill="none" points="12,-20 11,-20 5,0 2,-8" stroke="#000000" stroke-linecap="square" stroke-width="1" transform="translate(0.5,24.5)"/><polyline fill="none" points="5,0 2,-8 0,-7" stroke="#000000" stroke-linecap="square" stroke-width="1" transform="translate(0.5,24.5)"/><line stroke="#000000" stroke-linecap="square" stroke-width="1" x1="12.5" x2="90.5" y1="4.5" y2="4.5"/><text font-family="Arial" font-size="16" text-anchor="middle" x="27.5" y="23">324</text><line stroke="#000000" stroke-linecap="square" stroke-width="1" x1="42.5" x2="43.5" y1="17.5" y2="17.5"/><line stroke="#000000" stroke-linecap="square" stroke-width="1" x1="44.5" x2="45.5" y1="17.5" y2="17.5"/><line stroke="#000000" stroke-linecap="square" stroke-width="1" x1="46.5" x2="47.5" y1="17.5" y2="17.5"/><line stroke="#000000" stroke-linecap="square" stroke-width="1" x1="48.5" x2="49.5" y1="17.5" y2="17.5"/><line stroke="#000000" stroke-linecap="square" stroke-width="1" x1="50.5" x2="51.5" y1="17.5" y2="17.5"/><line stroke="#000000" stroke-linecap="square" stroke-width="1" x1="52.5" x2="53.5" y1="17.5" y2="17.5"/><line stroke="#000000" stroke-linecap="square" stroke-width="1" x1="54.5" x2="55.5" y1="17.5" y2="17.5"/><line stroke="#000000" stroke-linecap="square" stroke-width="1" x1="56.5" x2="57.5" y1="17.5" y2="17.5"/><polyline fill="none" points="12,-16 11,-16 5,0 2,-6" stroke="#000000" stroke-linecap="square" stroke-width="1" transform="translate(55.5,24.5)"/><polyline fill="none" points="5,0 2,-6" stroke="#000000" stroke-linecap="square" stroke-width="1" transform="translate(55.5,24.5)"/><line stroke="#000000" stroke-linecap="square" stroke-width="1" x1="67.5" x2="88.5" y1="8.5" y2="8.5"/><text font-family="Arial" font-size="12" text-anchor="middle" x="51.5" y="15">324</text><text font-family="Arial" font-size="16" text-anchor="middle" x="78.5" y="23">23</text></svg>