<svg xmlns="http://www.w3.org/2000/svg" xmlns:wrs="http://www.wiris.com/xml/cvs-extension" height="27" width="104" wrs:baseline="23"><!--MathML: <math xmlns="http://www.w3.org/1998/Math/MathML"><msqrt><mi>e</mi><mi>r</mi><mi>w</mi><mi>e</mi><mi>r</mi><mroot><mrow><mi>w</mi><mi>e</mi></mrow><mrow><mi>e</mi><mi>e</mi></mrow></mroot></msqrt></math>--><defs><style type="text/css"/></defs><polyline fill="none" points="12,-20 11,-20 5,0 2,-8" stroke="#000000" stroke-linecap="square" stroke-width="1" transform="translate(0.5,24.5)"/><polyline fill="none" points="5,0 2,-8 0,-7" stroke="#000000" stroke-linecap="square" stroke-width="1" transform="translate(0.5,24.5)"/><line stroke="#000000" stroke-linecap="square" stroke-width="1" x1="12.5" x2="102.5" y1="4.5" y2="4.5"/><text font-family="Arial" font-size="16" font-style="italic" text-anchor="middle" x="18.5" y="23">e</text><text font-family="Arial" font-size="16" font-style="italic" text-anchor="middle" x="25.5" y="23">r</text><text font-family="Arial" font-size="16" font-style="italic" text-anchor="middle" x="34.5" y="23">w</text><text font-family="Arial" font-size="16" font-style="italic" text-anchor="middle" x="44.5" y="23">e</text><text font-family="Arial" font-size="16" font-style="italic" text-anchor="middle" x="51.5" y="23">r</text><line stroke="#000000" stroke-linecap="square" stroke-width="1" x1="56.5" x2="57.5" y1="17.5" y2="17.5"/><line stroke="#000000" stroke-linecap="square" stroke-width="1" x1="58.5" x2="59.5" y1="17.5" y2="17.5"/><line stroke="#000000" stroke-linecap="square" stroke-width="1" x1="60.5" x2="61.5" y1="17.5" y2="17.5"/><line stroke="#000000" stroke-linecap="square" stroke-width="1" x1="62.5" x2="63.5" y1="17.5" y2="17.5"/><line stroke="#000000" stroke-linecap="square" stroke-width="1" x1="64.5" x2="65.5" y1="17.5" y2="17.5"/><polyline fill="none" points="12,-16 11,-16 5,0 2,-6" stroke="#000000" stroke-linecap="square" stroke-width="1" transform="translate(63.5,24.5)"/><polyline fill="none" points="5,0 2,-6" stroke="#000000" stroke-linecap="square" stroke-width="1" transform="translate(63.5,24.5)"/><line stroke="#000000" stroke-linecap="square" stroke-width="1" x1="75.5" x2="100.5" y1="8.5" y2="8.5"/><text font-family="Arial" font-size="12" font-style="italic" text-anchor="middle" x="58.5" y="15">e</text><text font-family="Arial" font-size="12" font-style="italic" text-anchor="middle" x="65.5" y="15">e</text><text font-family="Arial" font-size="16" font-style="italic" text-anchor="middle" x="83.5" y="23">w</text><text font-family="Arial" font-size="16" font-style="italic" text-anchor="middle" x="93.5" y="23">e</text></svg>